<?xml version="1.0" standalone="no"?>
<!DOCTYPE svg PUBLIC "-//W3C//DTD SVG 20010904//EN"
 "http://www.w3.org/TR/2001/REC-SVG-20010904/DTD/svg10.dtd">
<svg version="1.0" xmlns="http://www.w3.org/2000/svg"
 width="83.000000pt" height="83.000000pt" viewBox="0 0 83.000000 83.000000"
 preserveAspectRatio="xMidYMid meet">

<g transform="translate(0.000000,83.000000) scale(0.100000,-0.100000)"
fill="#000000" stroke="none">
<path d="M337 778 c-40 -11 -97 -57 -97 -80 0 -10 3 -9 10 2 7 11 10 7 10 -17
0 -33 15 -52 23 -31 3 7 6 0 6 -16 1 -24 -1 -27 -14 -16 -13 11 -17 8 -26 -19
-6 -17 -14 -31 -19 -31 -4 0 -13 -34 -20 -76 -6 -42 -18 -90 -26 -107 -12 -26
-14 -27 -10 -7 3 14 10 59 16 100 6 41 13 89 15 106 5 29 4 30 -32 30 -37 0
-37 0 -10 -10 38 -14 34 -26 -10 -26 -20 0 -33 3 -30 6 3 4 2 15 -4 25 -7 13
-6 19 1 19 7 0 7 6 -1 21 -9 18 -16 20 -52 14 -23 -4 -47 -7 -54 -8 -7 0 -10
-4 -7 -9 3 -5 11 -6 17 -2 7 3 4 -1 -5 -9 -15 -12 -17 -32 -17 -140 1 -118 2
-127 20 -127 22 0 23 4 9 29 -7 15 -4 20 16 30 14 6 23 15 20 20 -3 5 0 11 8
14 7 3 29 -10 47 -29 18 -19 28 -34 21 -34 -7 0 -12 -7 -12 -15 0 -8 -9 -19
-19 -25 -30 -16 -23 -50 11 -50 19 0 26 -4 22 -14 -9 -22 -53 -26 -64 -5 -7
13 -19 16 -41 14 -18 -3 -34 -6 -36 -8 -2 -3 -2 -58 -1 -123 l3 -119 50 70
c27 39 60 81 73 95 l25 25 -5 -33 c-3 -22 -1 -29 6 -22 16 16 26 12 26 -14 0
-16 -22 -47 -70 -95 -39 -38 -70 -73 -70 -76 0 -3 59 -5 131 -5 l131 0 -7 38
c-6 34 -5 36 8 17 9 -11 13 -23 11 -26 -2 -4 3 -12 11 -19 13 -11 14 -10 9 6
-4 10 -17 33 -30 50 l-23 31 20 33 c11 18 27 40 36 48 15 16 15 19 -6 120 -5
24 -5 45 0 48 5 3 9 14 9 25 0 27 24 24 57 -10 16 -16 53 -41 82 -56 l53 -26
-4 78 c-3 43 -8 86 -12 96 -16 35 18 16 76 -42 56 -58 62 -68 59 -103 -2 -18
50 -122 75 -149 10 -11 14 -31 13 -53 -2 -19 -1 -38 3 -41 3 -3 4 -15 1 -25
-5 -18 -6 -18 -49 2 -23 12 -40 26 -37 31 3 6 1 7 -6 3 -7 -4 -9 -16 -6 -27 4
-11 1 -26 -5 -34 -11 -13 1 -15 89 -15 l101 0 0 115 0 116 -30 6 c-23 4 -30
11 -29 27 1 15 3 16 6 5 2 -10 12 -19 23 -22 20 -5 30 16 30 65 0 22 -4 25
-22 22 l-23 -5 23 12 c21 12 22 17 21 145 l-1 132 -31 5 c-22 3 -37 -1 -49
-13 -17 -18 -92 -35 -110 -24 -6 4 -14 0 -19 -7 -6 -10 -9 -11 -9 -1 0 6 -4
12 -10 12 -5 0 -9 -3 -9 -7 3 -20 -3 -19 -31 5 -32 29 -39 52 -15 52 8 0 15 4
15 9 0 5 -10 7 -22 5 -18 -3 -16 -1 7 11 29 15 29 16 4 11 -22 -5 -31 1 -53
32 -21 31 -100 85 -117 81 -2 -1 -21 -6 -42 -11z m60 -108 c2 -39 -8 -70 -23
-70 -7 0 -18 -9 -24 -20 -15 -28 -27 -18 -35 30 -9 54 14 93 53 88 21 -2 27
-9 29 -28z m-352 -51 c-4 -6 2 -13 14 -16 12 -3 21 -12 21 -20 0 -15 -33 -10
-57 9 -15 12 -6 38 14 38 8 0 11 -5 8 -11z m383 -54 c7 -14 12 -35 12 -47 0
-19 -1 -19 -24 -5 -22 15 -24 14 -34 -9 -13 -28 -27 -31 -36 -8 -8 20 4 70 14
55 10 -17 40 -2 40 20 0 27 15 24 28 -6z m-293 -26 c1 -17 -5 -25 -17 -25 -10
0 -18 6 -18 13 0 6 -5 15 -12 19 -7 4 -8 3 -4 -4 4 -7 2 -12 -3 -12 -6 0 -11
5 -11 11 0 5 -6 7 -12 3 -9 -5 -10 -4 -3 4 10 10 51 21 70 17 6 -1 10 -13 10
-26z m482 -11 c-3 -7 -5 -2 -5 12 0 14 2 19 5 13 2 -7 2 -19 0 -25z m-582 2
c-3 -5 -10 -10 -16 -10 -5 0 -9 5 -9 10 0 6 7 10 16 10 8 0 12 -4 9 -10z m85
-66 c0 -8 -4 -12 -10 -9 -5 3 -10 10 -10 16 0 5 5 9 10 9 6 0 10 -7 10 -16z
m334 1 c-4 -9 0 -15 10 -15 10 0 13 -6 10 -15 -8 -20 -48 -19 -64 0 -11 13
-10 18 6 30 25 19 45 19 38 0z m277 5 c27 0 23 -18 -6 -26 -15 -4 -30 -1 -39
9 -17 16 -9 30 12 22 7 -3 22 -5 33 -5z m77 -73 c7 -8 6 -17 -3 -30 -8 -12
-15 -14 -20 -8 -3 6 -1 11 6 11 8 0 10 3 3 10 -10 10 -67 15 -104 8 -14 -3
-19 -3 -12 -1 7 3 10 9 7 14 -9 14 111 11 123 -4z m-99 -38 c-19 -12 -39 -11
-39 1 0 5 7 7 15 4 8 -4 15 -1 15 6 0 6 5 8 11 4 8 -4 7 -9 -2 -15z m-11 -64
c-3 -3 -9 2 -12 12 -6 14 -5 15 5 6 7 -7 10 -15 7 -18z m-612 -42 c-4 -4 -11
-1 -16 7 -16 25 -11 35 7 17 9 -9 13 -20 9 -24z m667 17 c3 -11 2 -22 -2 -24
-4 -3 -8 6 -9 20 -2 29 4 31 11 4z m-659 -45 c-6 -15 -40 -20 -69 -9 -23 9 -4
19 40 22 27 2 33 -1 29 -13z"/>
<path d="M162 684 c2 -15 8 -29 14 -31 7 -2 10 6 6 22 -6 35 -24 44 -20 9z"/>
<path d="M602 680 c0 -14 2 -19 5 -12 2 6 2 18 0 25 -3 6 -5 1 -5 -13z"/>
<path d="M126 671 c-3 -5 1 -12 10 -15 8 -3 12 -10 9 -16 -7 -11 8 -14 18 -4
7 7 -14 44 -25 44 -4 0 -9 -4 -12 -9z"/>
<path d="M630 640 c0 -12 -7 -20 -17 -20 -9 0 -14 -3 -10 -6 3 -4 21 -4 39 0
40 7 48 41 11 44 -17 1 -23 -4 -23 -18z"/>
<path d="M188 633 c7 -3 16 -2 19 1 4 3 -2 6 -13 5 -11 0 -14 -3 -6 -6z"/>
<path d="M556 618 c3 -5 10 -6 15 -3 13 9 11 12 -6 12 -8 0 -12 -4 -9 -9z"/>
<path d="M678 603 c12 -2 30 -2 40 0 9 3 -1 5 -23 4 -22 0 -30 -2 -17 -4z"/>
<path d="M13 353 c-7 -2 -13 -13 -13 -23 0 -16 4 -17 34 -8 22 7 32 16 29 24
-5 14 -27 17 -50 7z"/>
<path d="M560 208 c0 -4 4 -8 9 -8 6 0 12 4 15 8 3 5 -1 9 -9 9 -8 0 -15 -4
-15 -9z"/>
<path d="M616 123 c-11 -11 -6 -23 9 -23 8 0 15 4 15 9 0 13 -16 22 -24 14z"/>
</g>
</svg>
